<mxfile host="Electron" agent="Mozilla/5.0 (Windows NT 10.0; Win64; x64) AppleWebKit/537.36 (KHTML, like Gecko) draw.io/28.1.2 Chrome/138.0.7204.243 Electron/37.4.0 Safari/537.36" version="28.1.2">
  <diagram name="หน้า-1" id="pL6XgKGVJinVjoS0Iunk">
    <mxGraphModel dx="719" dy="432" grid="1" gridSize="10" guides="1" tooltips="1" connect="1" arrows="1" fold="1" page="1" pageScale="1" pageWidth="827" pageHeight="1169" math="0" shadow="0">
      <root>
        <mxCell id="0" />
        <mxCell id="1" parent="0" />
        <mxCell id="gOvEDOHKQ5mqgJx4VKtr-1" value="Start" style="ellipse;whiteSpace=wrap;html=1;" vertex="1" parent="1">
          <mxGeometry x="300" y="110" width="100" height="40" as="geometry" />
        </mxCell>
        <mxCell id="gOvEDOHKQ5mqgJx4VKtr-2" value="แสดงข้อความ &#39;Enter Day :&#39;" style="parallelogram;whiteSpace=wrap;html=1;" vertex="1" parent="1">
          <mxGeometry x="270" y="170" width="160" height="50" as="geometry" />
        </mxCell>
        <mxCell id="gOvEDOHKQ5mqgJx4VKtr-3" value="รับค่า D" style="parallelogram;whiteSpace=wrap;html=1;" vertex="1" parent="1">
          <mxGeometry x="290" y="240" width="120" height="50" as="geometry" />
        </mxCell>
        <mxCell id="gOvEDOHKQ5mqgJx4VKtr-4" value="คำนวณ Seconds = 24 * 60 * 60" style="rectangle;whiteSpace=wrap;html=1;" vertex="1" parent="1">
          <mxGeometry x="250" y="310" width="200" height="50" as="geometry" />
        </mxCell>
        <mxCell id="gOvEDOHKQ5mqgJx4VKtr-5" value="แสดงผล D days = D * Seconds" style="parallelogram;whiteSpace=wrap;html=1;" vertex="1" parent="1">
          <mxGeometry x="240" y="390" width="220" height="50" as="geometry" />
        </mxCell>
        <mxCell id="gOvEDOHKQ5mqgJx4VKtr-6" value="Stop" style="ellipse;whiteSpace=wrap;html=1;" vertex="1" parent="1">
          <mxGeometry x="300" y="460" width="100" height="40" as="geometry" />
        </mxCell>
        <mxCell id="gOvEDOHKQ5mqgJx4VKtr-7" edge="1" parent="1" source="gOvEDOHKQ5mqgJx4VKtr-1" target="gOvEDOHKQ5mqgJx4VKtr-2">
          <mxGeometry relative="1" as="geometry" />
        </mxCell>
        <mxCell id="gOvEDOHKQ5mqgJx4VKtr-8" edge="1" parent="1" source="gOvEDOHKQ5mqgJx4VKtr-2" target="gOvEDOHKQ5mqgJx4VKtr-3">
          <mxGeometry relative="1" as="geometry" />
        </mxCell>
        <mxCell id="gOvEDOHKQ5mqgJx4VKtr-9" edge="1" parent="1" source="gOvEDOHKQ5mqgJx4VKtr-3" target="gOvEDOHKQ5mqgJx4VKtr-4">
          <mxGeometry relative="1" as="geometry" />
        </mxCell>
        <mxCell id="gOvEDOHKQ5mqgJx4VKtr-10" edge="1" parent="1" source="gOvEDOHKQ5mqgJx4VKtr-4" target="gOvEDOHKQ5mqgJx4VKtr-5">
          <mxGeometry relative="1" as="geometry" />
        </mxCell>
        <mxCell id="gOvEDOHKQ5mqgJx4VKtr-11" edge="1" parent="1" source="gOvEDOHKQ5mqgJx4VKtr-5" target="gOvEDOHKQ5mqgJx4VKtr-6">
          <mxGeometry relative="1" as="geometry" />
        </mxCell>
      </root>
    </mxGraphModel>
  </diagram>
</mxfile>
